<mxfile host="app.diagrams.net" agent="Mozilla/5.0 (Windows NT 10.0; Win64; x64) AppleWebKit/537.36 (KHTML, like Gecko) Chrome/128.0.0.0 Safari/537.36" version="24.7.13">
  <diagram name="Halaman-1" id="rJi5ZO-b59d1I9NXH13N">
    <mxGraphModel dx="880" dy="468" grid="1" gridSize="10" guides="1" tooltips="1" connect="1" arrows="1" fold="1" page="1" pageScale="1" pageWidth="827" pageHeight="1169" math="0" shadow="0">
      <root>
        <mxCell id="0" />
        <mxCell id="1" parent="0" />
        <mxCell id="mq9vgWqou_QmTZbV-cZe-1" value="Aplikasi Pembelajaran" style="swimlane;whiteSpace=wrap;html=1;" vertex="1" parent="1">
          <mxGeometry x="280" y="110" width="460" height="400" as="geometry" />
        </mxCell>
        <mxCell id="mq9vgWqou_QmTZbV-cZe-4" value="Buat Materi" style="ellipse;whiteSpace=wrap;html=1;" vertex="1" parent="mq9vgWqou_QmTZbV-cZe-1">
          <mxGeometry x="34" y="40" width="80" height="40" as="geometry" />
        </mxCell>
        <mxCell id="mq9vgWqou_QmTZbV-cZe-16" style="edgeStyle=none;rounded=0;orthogonalLoop=1;jettySize=auto;html=1;exitX=1;exitY=0.5;exitDx=0;exitDy=0;entryX=0;entryY=0.5;entryDx=0;entryDy=0;dashed=1;" edge="1" parent="mq9vgWqou_QmTZbV-cZe-1" source="mq9vgWqou_QmTZbV-cZe-5" target="mq9vgWqou_QmTZbV-cZe-8">
          <mxGeometry relative="1" as="geometry" />
        </mxCell>
        <mxCell id="mq9vgWqou_QmTZbV-cZe-17" value="&amp;lt;&amp;lt;include&amp;gt;&amp;gt;" style="edgeLabel;html=1;align=center;verticalAlign=middle;resizable=0;points=[];" vertex="1" connectable="0" parent="mq9vgWqou_QmTZbV-cZe-16">
          <mxGeometry x="-0.2424" y="-1" relative="1" as="geometry">
            <mxPoint as="offset" />
          </mxGeometry>
        </mxCell>
        <mxCell id="mq9vgWqou_QmTZbV-cZe-5" value="Buat Quiz" style="ellipse;whiteSpace=wrap;html=1;" vertex="1" parent="mq9vgWqou_QmTZbV-cZe-1">
          <mxGeometry x="34" y="100" width="80" height="40" as="geometry" />
        </mxCell>
        <mxCell id="mq9vgWqou_QmTZbV-cZe-6" value="Buat Forum" style="ellipse;whiteSpace=wrap;html=1;" vertex="1" parent="mq9vgWqou_QmTZbV-cZe-1">
          <mxGeometry x="34" y="160" width="80" height="40" as="geometry" />
        </mxCell>
        <mxCell id="mq9vgWqou_QmTZbV-cZe-7" value="Koleksi &lt;br&gt;Materi" style="ellipse;whiteSpace=wrap;html=1;" vertex="1" parent="mq9vgWqou_QmTZbV-cZe-1">
          <mxGeometry x="220" y="40" width="80" height="40" as="geometry" />
        </mxCell>
        <mxCell id="mq9vgWqou_QmTZbV-cZe-8" value="Daftar Quiz" style="ellipse;whiteSpace=wrap;html=1;" vertex="1" parent="mq9vgWqou_QmTZbV-cZe-1">
          <mxGeometry x="220" y="100" width="80" height="40" as="geometry" />
        </mxCell>
        <mxCell id="mq9vgWqou_QmTZbV-cZe-9" value="Balas Forum" style="ellipse;whiteSpace=wrap;html=1;" vertex="1" parent="mq9vgWqou_QmTZbV-cZe-1">
          <mxGeometry x="220" y="160" width="80" height="40" as="geometry" />
        </mxCell>
        <mxCell id="mq9vgWqou_QmTZbV-cZe-13" value="" style="endArrow=classic;html=1;rounded=0;exitX=1;exitY=0.5;exitDx=0;exitDy=0;entryX=0;entryY=0.5;entryDx=0;entryDy=0;dashed=1;" edge="1" parent="mq9vgWqou_QmTZbV-cZe-1" source="mq9vgWqou_QmTZbV-cZe-6" target="mq9vgWqou_QmTZbV-cZe-9">
          <mxGeometry relative="1" as="geometry">
            <mxPoint x="80" y="190" as="sourcePoint" />
            <mxPoint x="180" y="190" as="targetPoint" />
          </mxGeometry>
        </mxCell>
        <mxCell id="mq9vgWqou_QmTZbV-cZe-14" value="&amp;lt;&amp;lt;extends&amp;gt;&amp;gt;" style="edgeLabel;resizable=0;html=1;;align=center;verticalAlign=middle;" connectable="0" vertex="1" parent="mq9vgWqou_QmTZbV-cZe-13">
          <mxGeometry relative="1" as="geometry" />
        </mxCell>
        <mxCell id="mq9vgWqou_QmTZbV-cZe-18" style="edgeStyle=none;rounded=0;orthogonalLoop=1;jettySize=auto;html=1;exitX=1;exitY=0.5;exitDx=0;exitDy=0;entryX=0;entryY=0.5;entryDx=0;entryDy=0;dashed=1;" edge="1" parent="mq9vgWqou_QmTZbV-cZe-1">
          <mxGeometry relative="1" as="geometry">
            <mxPoint x="114" y="59.43000000000001" as="sourcePoint" />
            <mxPoint x="220" y="59.43000000000001" as="targetPoint" />
          </mxGeometry>
        </mxCell>
        <mxCell id="mq9vgWqou_QmTZbV-cZe-19" value="&amp;lt;&amp;lt;include&amp;gt;&amp;gt;" style="edgeLabel;html=1;align=center;verticalAlign=middle;resizable=0;points=[];" vertex="1" connectable="0" parent="mq9vgWqou_QmTZbV-cZe-18">
          <mxGeometry x="-0.2424" y="-1" relative="1" as="geometry">
            <mxPoint as="offset" />
          </mxGeometry>
        </mxCell>
        <mxCell id="mq9vgWqou_QmTZbV-cZe-20" value="Lihat Materi" style="ellipse;whiteSpace=wrap;html=1;" vertex="1" parent="mq9vgWqou_QmTZbV-cZe-1">
          <mxGeometry x="34" y="230" width="80" height="40" as="geometry" />
        </mxCell>
        <mxCell id="mq9vgWqou_QmTZbV-cZe-27" style="edgeStyle=none;rounded=0;orthogonalLoop=1;jettySize=auto;html=1;exitX=1;exitY=0.5;exitDx=0;exitDy=0;entryX=0;entryY=0.5;entryDx=0;entryDy=0;dashed=1;" edge="1" parent="mq9vgWqou_QmTZbV-cZe-1" source="mq9vgWqou_QmTZbV-cZe-21" target="mq9vgWqou_QmTZbV-cZe-23">
          <mxGeometry relative="1" as="geometry" />
        </mxCell>
        <mxCell id="mq9vgWqou_QmTZbV-cZe-28" value="&amp;lt;&amp;lt;extends&amp;gt;&amp;gt;" style="edgeLabel;html=1;align=center;verticalAlign=middle;resizable=0;points=[];" vertex="1" connectable="0" parent="mq9vgWqou_QmTZbV-cZe-27">
          <mxGeometry x="-0.0833" y="-1" relative="1" as="geometry">
            <mxPoint as="offset" />
          </mxGeometry>
        </mxCell>
        <mxCell id="mq9vgWqou_QmTZbV-cZe-21" value="Lihat Quiz" style="ellipse;whiteSpace=wrap;html=1;" vertex="1" parent="mq9vgWqou_QmTZbV-cZe-1">
          <mxGeometry x="34" y="290" width="80" height="40" as="geometry" />
        </mxCell>
        <mxCell id="mq9vgWqou_QmTZbV-cZe-22" value="Join Forum" style="ellipse;whiteSpace=wrap;html=1;" vertex="1" parent="mq9vgWqou_QmTZbV-cZe-1">
          <mxGeometry x="34" y="350" width="80" height="40" as="geometry" />
        </mxCell>
        <mxCell id="mq9vgWqou_QmTZbV-cZe-23" value="Hasil Quiz" style="ellipse;whiteSpace=wrap;html=1;" vertex="1" parent="mq9vgWqou_QmTZbV-cZe-1">
          <mxGeometry x="210" y="290" width="80" height="40" as="geometry" />
        </mxCell>
        <mxCell id="mq9vgWqou_QmTZbV-cZe-10" style="edgeStyle=none;rounded=0;orthogonalLoop=1;jettySize=auto;html=1;exitX=0.5;exitY=0.5;exitDx=0;exitDy=0;exitPerimeter=0;entryX=0;entryY=0.5;entryDx=0;entryDy=0;" edge="1" parent="1" source="mq9vgWqou_QmTZbV-cZe-2" target="mq9vgWqou_QmTZbV-cZe-4">
          <mxGeometry relative="1" as="geometry" />
        </mxCell>
        <mxCell id="mq9vgWqou_QmTZbV-cZe-11" style="edgeStyle=none;rounded=0;orthogonalLoop=1;jettySize=auto;html=1;exitX=0.5;exitY=0.5;exitDx=0;exitDy=0;exitPerimeter=0;entryX=0;entryY=0.5;entryDx=0;entryDy=0;" edge="1" parent="1" source="mq9vgWqou_QmTZbV-cZe-2" target="mq9vgWqou_QmTZbV-cZe-5">
          <mxGeometry relative="1" as="geometry" />
        </mxCell>
        <mxCell id="mq9vgWqou_QmTZbV-cZe-12" style="edgeStyle=none;rounded=0;orthogonalLoop=1;jettySize=auto;html=1;exitX=0.5;exitY=0.5;exitDx=0;exitDy=0;exitPerimeter=0;entryX=0;entryY=0.5;entryDx=0;entryDy=0;" edge="1" parent="1" source="mq9vgWqou_QmTZbV-cZe-2" target="mq9vgWqou_QmTZbV-cZe-6">
          <mxGeometry relative="1" as="geometry" />
        </mxCell>
        <mxCell id="mq9vgWqou_QmTZbV-cZe-2" value="Guru" style="shape=umlActor;verticalLabelPosition=bottom;verticalAlign=top;html=1;outlineConnect=0;" vertex="1" parent="1">
          <mxGeometry x="160" y="170" width="30" height="60" as="geometry" />
        </mxCell>
        <mxCell id="mq9vgWqou_QmTZbV-cZe-24" style="edgeStyle=none;rounded=0;orthogonalLoop=1;jettySize=auto;html=1;exitX=0.5;exitY=0.5;exitDx=0;exitDy=0;exitPerimeter=0;entryX=0;entryY=0.5;entryDx=0;entryDy=0;" edge="1" parent="1" source="mq9vgWqou_QmTZbV-cZe-3" target="mq9vgWqou_QmTZbV-cZe-20">
          <mxGeometry relative="1" as="geometry" />
        </mxCell>
        <mxCell id="mq9vgWqou_QmTZbV-cZe-25" style="edgeStyle=none;rounded=0;orthogonalLoop=1;jettySize=auto;html=1;exitX=0.5;exitY=0.5;exitDx=0;exitDy=0;exitPerimeter=0;" edge="1" parent="1" source="mq9vgWqou_QmTZbV-cZe-3" target="mq9vgWqou_QmTZbV-cZe-21">
          <mxGeometry relative="1" as="geometry" />
        </mxCell>
        <mxCell id="mq9vgWqou_QmTZbV-cZe-26" style="edgeStyle=none;rounded=0;orthogonalLoop=1;jettySize=auto;html=1;exitX=0.5;exitY=0.5;exitDx=0;exitDy=0;exitPerimeter=0;entryX=0;entryY=0.5;entryDx=0;entryDy=0;" edge="1" parent="1" source="mq9vgWqou_QmTZbV-cZe-3" target="mq9vgWqou_QmTZbV-cZe-22">
          <mxGeometry relative="1" as="geometry" />
        </mxCell>
        <mxCell id="mq9vgWqou_QmTZbV-cZe-3" value="Siswa&lt;div&gt;&lt;br&gt;&lt;/div&gt;" style="shape=umlActor;verticalLabelPosition=bottom;verticalAlign=top;html=1;outlineConnect=0;" vertex="1" parent="1">
          <mxGeometry x="160" y="370" width="30" height="60" as="geometry" />
        </mxCell>
      </root>
    </mxGraphModel>
  </diagram>
</mxfile>
